<svg width="24" height="24" viewBox="0 0 24 24" fill="none" xmlns="http://www.w3.org/2000/svg">
<g id="Foods/birthday-cake-filled">
<path id="Vector" d="M4 20H20V12H4V20Z" fill="#1C1B1F"/>
<path id="Vector (Stroke)" fill-rule="evenodd" clip-rule="evenodd" d="M3.25 12C3.25 11.5858 3.58579 11.25 4 11.25H20C20.4142 11.25 20.75 11.5858 20.75 12V19.25H22C22.4142 19.25 22.75 19.5858 22.75 20C22.75 20.4142 22.4142 20.75 22 20.75H2C1.58579 20.75 1.25 20.4142 1.25 20C1.25 19.5858 1.58579 19.25 2 19.25H3.25V12ZM4.75 19.25H19.25V12.75H4.75V19.25Z" fill="#1C1B1F"/>
<path id="Vector (Stroke)_2" fill-rule="evenodd" clip-rule="evenodd" d="M5.66451 15.3292C5.87566 15.2236 6.12418 15.2236 6.33533 15.3292L7.99992 16.1615L9.66451 15.3292C9.87566 15.2236 10.1242 15.2236 10.3353 15.3292L11.9999 16.1615L13.6645 15.3292C13.8757 15.2236 14.1242 15.2236 14.3353 15.3292L15.9999 16.1615L17.6645 15.3292C17.8757 15.2236 18.1242 15.2236 18.3353 15.3292L20.3353 16.3292C20.7058 16.5144 20.856 16.9649 20.6707 17.3354C20.4855 17.7059 20.035 17.8561 19.6645 17.6708L17.9999 16.8385L16.3353 17.6708C16.1242 17.7764 15.8757 17.7764 15.6645 17.6708L13.9999 16.8385L12.3353 17.6708C12.1242 17.7764 11.8757 17.7764 11.6645 17.6708L9.99992 16.8385L8.33533 17.6708C8.12419 17.7764 7.87566 17.7764 7.66451 17.6708L5.99992 16.8385L4.33533 17.6708C3.96485 17.8561 3.51434 17.7059 3.3291 17.3354C3.14386 16.9649 3.29403 16.5144 3.66451 16.3292L5.66451 15.3292Z" fill="#1C1B1F"/>
<path id="Vector (Stroke)_3" fill-rule="evenodd" clip-rule="evenodd" d="M16 6.75C16.4142 6.75 16.75 7.08579 16.75 7.5V12C16.75 12.4142 16.4142 12.75 16 12.75C15.5858 12.75 15.25 12.4142 15.25 12V7.5C15.25 7.08579 15.5858 6.75 16 6.75Z" fill="#1C1B1F"/>
<path id="Vector (Stroke)_4" fill-rule="evenodd" clip-rule="evenodd" d="M12 6.75C12.4142 6.75 12.75 7.08579 12.75 7.5V12C12.75 12.4142 12.4142 12.75 12 12.75C11.5858 12.75 11.25 12.4142 11.25 12V7.5C11.25 7.08579 11.5858 6.75 12 6.75Z" fill="#1C1B1F"/>
<path id="Vector (Stroke)_5" fill-rule="evenodd" clip-rule="evenodd" d="M8 6.75C8.41421 6.75 8.75 7.08579 8.75 7.5V12C8.75 12.4142 8.41421 12.75 8 12.75C7.58579 12.75 7.25 12.4142 7.25 12V7.5C7.25 7.08579 7.58579 6.75 8 6.75Z" fill="#1C1B1F"/>
<path id="Vector (Stroke)_6" fill-rule="evenodd" clip-rule="evenodd" d="M16 3.25C16.4142 3.25 16.75 3.58579 16.75 4V5C16.75 5.41421 16.4142 5.75 16 5.75C15.5858 5.75 15.25 5.41421 15.25 5V4C15.25 3.58579 15.5858 3.25 16 3.25Z" fill="#1C1B1F"/>
<path id="Vector (Stroke)_7" fill-rule="evenodd" clip-rule="evenodd" d="M12 3.25C12.4142 3.25 12.75 3.58579 12.75 4V5C12.75 5.41421 12.4142 5.75 12 5.75C11.5858 5.75 11.25 5.41421 11.25 5V4C11.25 3.58579 11.5858 3.25 12 3.25Z" fill="#1C1B1F"/>
<path id="Vector (Stroke)_8" fill-rule="evenodd" clip-rule="evenodd" d="M8 3.25C8.41421 3.25 8.75 3.58579 8.75 4V5C8.75 5.41421 8.41421 5.75 8 5.75C7.58579 5.75 7.25 5.41421 7.25 5V4C7.25 3.58579 7.58579 3.25 8 3.25Z" fill="#1C1B1F"/>
<path id="Vector (Stroke)_9" fill-rule="evenodd" clip-rule="evenodd" d="M4 11.25C4.41421 11.25 4.75 11.5858 4.75 12V20C4.75 20.4142 4.41421 20.75 4 20.75C3.58579 20.75 3.25 20.4142 3.25 20V12C3.25 11.5858 3.58579 11.25 4 11.25Z" fill="#1C1B1F"/>
<path id="Vector (Stroke)_10" fill-rule="evenodd" clip-rule="evenodd" d="M20 11.25C20.4142 11.25 20.75 11.5858 20.75 12V20C20.75 20.4142 20.4142 20.75 20 20.75C19.5858 20.75 19.25 20.4142 19.25 20V12C19.25 11.5858 19.5858 11.25 20 11.25Z" fill="#1C1B1F"/>
</g>
</svg>
