<svg width="24" height="24" viewBox="0 0 24 24" fill="none" xmlns="http://www.w3.org/2000/svg">
<g id="Base/lock-filled">
<path id="Vector" d="M6.25 10.25V7C6.25 3.82436 8.82439 1.25 12 1.25C15.1756 1.25 17.75 3.82436 17.75 7V10.25H20C20.9665 10.25 21.75 11.0335 21.75 12V21C21.75 21.9665 20.9665 22.75 20 22.75H4C3.0335 22.75 2.25 21.9665 2.25 21V12C2.25 11.0335 3.0335 10.25 4 10.25H6.25ZM7.75 7V10.25H16.25V7C16.25 4.65279 14.3472 2.75 12 2.75C9.65281 2.75 7.75 4.65279 7.75 7ZM12 14.25C11.5858 14.25 11.25 14.5858 11.25 15V18C11.25 18.4142 11.5858 18.75 12 18.75C12.4142 18.75 12.75 18.4142 12.75 18V15C12.75 14.5858 12.4142 14.25 12 14.25Z" fill="black"/>
</g>
</svg>
