<svg width="24" height="24" viewBox="0 0 24 24" fill="none" xmlns="http://www.w3.org/2000/svg">
<g id="Base/phone-call-filled">
<g id="Vector">
<path d="M13.7419 2.69486C14.6144 2.56481 15.5076 2.60742 16.3668 2.82286L17.9999 3.5L19.4655 4.58153C20.3525 5.46849 20.9394 6.54431 21.2242 7.68028C21.4397 8.5395 21.4823 9.43267 21.3522 10.3051C21.2959 10.6833 20.9436 10.9442 20.5654 10.8878C20.1872 10.8314 19.9264 10.4791 19.9827 10.101C20.086 9.40808 20.0521 8.6987 19.8812 8.01702C19.6556 7.11742 19.1914 6.26549 18.4865 5.5606C17.7816 4.85573 16.9296 4.39147 16.0301 4.1659C15.3484 3.99497 14.639 3.96105 13.9461 4.06434C13.5679 4.12071 13.2156 3.85984 13.1593 3.48167C13.1029 3.10349 13.3638 2.75123 13.7419 2.69486Z" fill="#1C1B1F"/>
<path d="M13.9131 5.99832C14.9593 5.84238 16.0662 6.16713 16.8733 6.9742C17.6805 7.78132 18.0052 8.88838 17.8492 9.93445C17.7928 10.3126 17.4406 10.5735 17.0624 10.5171C16.6842 10.4607 16.4234 10.1085 16.4797 9.7303C16.5738 9.09952 16.378 8.43701 15.8943 7.95329L15.8743 7.93357C15.3924 7.46423 14.7394 7.27507 14.1173 7.36781C13.7391 7.42418 13.3868 7.16331 13.3305 6.78514C13.2741 6.40697 13.535 6.0547 13.9131 5.99832Z" fill="#1C1B1F"/>
<path d="M9.62081 10.3759L9.62115 10.3771C9.66471 10.5269 9.73629 10.744 9.84559 10.9996C10.0654 11.5138 10.4302 12.1666 11.0105 12.7469C11.5908 13.3272 12.2421 13.6905 12.7544 13.9088C13.0092 14.0174 13.2262 14.0885 13.3753 14.1316L15.3211 13.1587C15.7982 12.9202 16.3623 12.9325 16.8285 13.1917L18.8681 14.3257C19.3808 14.6107 19.6986 15.1511 19.6986 15.7376V18.0792C19.6986 19.7044 18.164 20.9531 16.5474 20.4076C14.2124 19.6197 10.4772 18.088 8.07332 15.6841C5.66944 13.2803 4.13773 9.54511 3.34984 7.21007C2.80437 5.59345 4.05305 4.0589 5.6783 4.0589H8.01954C8.6064 4.0589 9.14705 4.37726 9.43188 4.89023L10.561 6.92415C10.8197 7.39014 10.8319 7.95386 10.5934 8.43068L9.62081 10.3759Z" fill="#1C1B1F"/>
</g>
</g>
</svg>
