<svg width="32" height="32" viewBox="0 0 32 32" fill="none" xmlns="http://www.w3.org/2000/svg">
<g id="Hardware/projector-three-filled" opacity="0.6">
<path id="Vector" d="M4 25.3333V21.3333H8H24H28V25.3333H24V21.3333H8V25.3333H4Z" fill="#1C1B1F"/>
<path id="Vector (Stroke)" fill-rule="evenodd" clip-rule="evenodd" d="M23 21.3333C23 20.781 23.4477 20.3333 24 20.3333H28C28.5523 20.3333 29 20.781 29 21.3333V25.3333C29 25.8856 28.5523 26.3333 28 26.3333H24C23.4477 26.3333 23 25.8856 23 25.3333V21.3333ZM25 22.3333V24.3333H27V22.3333H25Z" fill="#1C1B1F"/>
<path id="Vector (Stroke)_2" fill-rule="evenodd" clip-rule="evenodd" d="M3 21.3333C3 20.781 3.44772 20.3333 4 20.3333H8C8.55229 20.3333 9 20.781 9 21.3333V25.3333C9 25.8856 8.55229 26.3333 8 26.3333H4C3.44772 26.3333 3 25.8856 3 25.3333V21.3333ZM5 22.3333V24.3333H7V22.3333H5Z" fill="#1C1B1F"/>
<path id="Vector (Stroke)_3" fill-rule="evenodd" clip-rule="evenodd" d="M1.66699 10.6667C1.66699 10.1144 2.11471 9.66667 2.66699 9.66667H16.0003C16.5526 9.66667 17.0003 10.1144 17.0003 10.6667C17.0003 11.219 16.5526 11.6667 16.0003 11.6667H3.66699V20.3333H28.3337V11.6667H25.3337C24.7814 11.6667 24.3337 11.219 24.3337 10.6667C24.3337 10.1144 24.7814 9.66667 25.3337 9.66667H29.3337C29.8859 9.66667 30.3337 10.1144 30.3337 10.6667V21.3333C30.3337 21.8856 29.8859 22.3333 29.3337 22.3333H2.66699C2.11471 22.3333 1.66699 21.8856 1.66699 21.3333V10.6667Z" fill="#1C1B1F"/>
<path id="Vector (Stroke)_4" fill-rule="evenodd" clip-rule="evenodd" d="M5.66699 16C5.66699 15.4477 6.11471 15 6.66699 15H12.0003C12.5526 15 13.0003 15.4477 13.0003 16C13.0003 16.5523 12.5526 17 12.0003 17H6.66699C6.11471 17 5.66699 16.5523 5.66699 16Z" fill="#1C1B1F"/>
<path id="Vector_2" d="M20.6667 15.3333C23.244 15.3333 25.3333 13.244 25.3333 10.6667C25.3333 8.08933 23.244 6 20.6667 6C18.0893 6 16 8.08933 16 10.6667C16 13.244 18.0893 15.3333 20.6667 15.3333Z" fill="#1C1B1F"/>
<path id="Vector (Stroke)_5" fill-rule="evenodd" clip-rule="evenodd" d="M15 10.6667C15 7.53705 17.537 5 20.6667 5C23.7963 5 26.3333 7.53705 26.3333 10.6667C26.3333 13.7963 23.7963 16.3333 20.6667 16.3333C17.537 16.3333 15 13.7963 15 10.6667ZM20.6667 7C18.6416 7 17 8.64162 17 10.6667C17 12.6917 18.6416 14.3333 20.6667 14.3333C22.6917 14.3333 24.3333 12.6917 24.3333 10.6667C24.3333 8.64162 22.6917 7 20.6667 7Z" fill="#1C1B1F"/>
<path id="Vector_3" d="M20.667 12.6667C21.7716 12.6667 22.667 11.7713 22.667 10.6667C22.667 9.56207 21.7716 8.66667 20.667 8.66667C19.5624 8.66667 18.667 9.56207 18.667 10.6667C18.667 11.7713 19.5624 12.6667 20.667 12.6667Z" fill="#FFFBFF"/>
</g>
</svg>
