<svg width="24" height="24" viewBox="0 0 24 24" fill="none" xmlns="http://www.w3.org/2000/svg">
<g id="Base/puzzle-filled">
<path id="Vector" d="M9.5 1.25C7.42893 1.25 5.75 2.92893 5.75 5V5.25H2C1.58579 5.25 1.25 5.58579 1.25 6V12C1.25 12.4142 1.58579 12.75 2 12.75H4C5.24264 12.75 6.25 13.7574 6.25 15C6.25 16.2426 5.24264 17.25 4 17.25H2C1.58579 17.25 1.25 17.5858 1.25 18V22C1.25 22.4142 1.58579 22.75 2 22.75H17C17.4142 22.75 17.75 22.4142 17.75 22V18.75H19C21.0711 18.75 22.75 17.0711 22.75 15C22.75 12.9289 21.0711 11.25 19 11.25H17.75V6C17.75 5.58579 17.4142 5.25 17 5.25H13.25V5C13.25 2.92893 11.5711 1.25 9.5 1.25Z" fill="#1C1B1F"/>
</g>
</svg>
