<svg width="24" height="24" viewBox="0 0 24 24" fill="none" xmlns="http://www.w3.org/2000/svg">
<g id="Build/school-filled">
<path id="Vector" d="M2 16.5C2 15.9477 2.44771 15.5 3 15.5H6V12L12 8L18 12V15.5H21C21.5523 15.5 22 15.9477 22 16.5V21C22 21.5523 21.5523 22 21 22H2V16.5Z" fill="#1C1B1F"/>
<path id="Vector (Stroke)" fill-rule="evenodd" clip-rule="evenodd" d="M11.584 7.37596C11.8359 7.20801 12.1641 7.20801 12.416 7.37596L18.416 11.376C18.6247 11.5151 18.75 11.7492 18.75 12V14.75H21C21.9665 14.75 22.75 15.5335 22.75 16.5V21C22.75 21.9665 21.9665 22.75 21 22.75H2C1.58579 22.75 1.25 22.4142 1.25 22V16.5C1.25 15.5335 2.03351 14.75 3 14.75H5.25V12C5.25 11.7492 5.37533 11.5151 5.58397 11.376L11.584 7.37596ZM6.75 12.4014V15.5C6.75 15.9142 6.41421 16.25 6 16.25H3C2.86192 16.25 2.75 16.3619 2.75 16.5V21.25H21C21.1381 21.25 21.25 21.1381 21.25 21V16.5C21.25 16.3619 21.1381 16.25 21 16.25H18C17.5858 16.25 17.25 15.9142 17.25 15.5V12.4014L12 8.90139L6.75 12.4014Z" fill="#1C1B1F"/>
<path id="Vector (Stroke)_2" fill-rule="evenodd" clip-rule="evenodd" d="M12 2.25C12.4142 2.25 12.75 2.58579 12.75 3V8C12.75 8.41421 12.4142 8.75 12 8.75C11.5858 8.75 11.25 8.41421 11.25 8V3C11.25 2.58579 11.5858 2.25 12 2.25Z" fill="#1C1B1F"/>
<path id="Vector (Stroke)_3" fill-rule="evenodd" clip-rule="evenodd" d="M12.3777 1.74108C13.1498 1.43226 14.1622 1.54001 15.416 2.3759C16.4122 3.04001 16.8998 2.93226 17.0652 2.86608C17.1697 2.82428 17.2429 2.76172 17.2902 2.70916C17.3136 2.68311 17.3287 2.66173 17.3357 2.65103C17.3368 2.64935 17.3376 2.64799 17.3382 2.64698C17.498 2.34731 17.8402 2.19161 18.1723 2.27C18.5108 2.34992 18.75 2.65211 18.75 2.99994V5.99994C18.75 6.11637 18.7229 6.23121 18.6708 6.33535L18 5.99994C18.6708 6.33535 18.6706 6.33588 18.6703 6.33642L18.6697 6.33752L18.6686 6.33985L18.6659 6.34494L18.6597 6.35686C18.6551 6.36556 18.6495 6.37576 18.6429 6.38731C18.6298 6.41038 18.6126 6.43902 18.5911 6.4719C18.5483 6.53737 18.4872 6.62146 18.4051 6.7126C18.2415 6.89441 17.9865 7.1131 17.6223 7.2588C16.8502 7.56762 15.8378 7.45987 14.584 6.62398C13.5878 5.95987 13.1002 6.06762 12.9348 6.1338C12.8303 6.1756 12.7571 6.23816 12.7098 6.29073C12.6864 6.31677 12.6713 6.33815 12.6643 6.34886C12.6632 6.35054 12.6624 6.3519 12.6618 6.35291C12.502 6.65258 12.1598 6.80828 11.8277 6.72988C11.4892 6.64996 11.25 6.34777 11.25 5.99994V2.99994C11.25 2.88351 11.2771 2.76867 11.3292 2.66453L12 2.99994C11.3292 2.66453 11.3294 2.664 11.3297 2.66346L11.3303 2.66236L11.3314 2.66004L11.3341 2.65495L11.3403 2.64302C11.3449 2.63433 11.3505 2.62412 11.3571 2.61257C11.3702 2.5895 11.3874 2.56086 11.4089 2.52798C11.4517 2.46251 11.5128 2.37843 11.5949 2.28728C11.7585 2.10547 12.0135 1.88678 12.3777 1.74108ZM12.75 3.25012V4.62949C13.4661 4.48246 14.3545 4.66824 15.416 5.3759C16.4122 6.04001 16.8998 5.93226 17.0652 5.86608C17.1437 5.83468 17.2045 5.79156 17.25 5.74976V4.37039C16.5339 4.51742 15.6455 4.33164 14.584 3.62398C13.5878 2.95987 13.1002 3.06762 12.9348 3.1338C12.8563 3.1652 12.7955 3.20832 12.75 3.25012Z" fill="#1C1B1F"/>
<path id="Vector (Stroke)_4" fill-rule="evenodd" clip-rule="evenodd" d="M9.25 15.5C9.25 15.0858 9.58579 14.75 10 14.75H14C14.4142 14.75 14.75 15.0858 14.75 15.5V22C14.75 22.4142 14.4142 22.75 14 22.75C13.5858 22.75 13.25 22.4142 13.25 22V16.25H10.75V22C10.75 22.4142 10.4142 22.75 10 22.75C9.58579 22.75 9.25 22.4142 9.25 22V15.5Z" fill="#1C1B1F"/>
<path id="Vector (Stroke)_5" fill-rule="evenodd" clip-rule="evenodd" d="M8.25 22C8.25 21.5858 8.58579 21.25 9 21.25H15C15.4142 21.25 15.75 21.5858 15.75 22C15.75 22.4142 15.4142 22.75 15 22.75H9C8.58579 22.75 8.25 22.4142 8.25 22Z" fill="#1C1B1F"/>
</g>
</svg>
